<svg xmlns="http://www.w3.org/2000/svg" viewBox="0 0 512 512">
    <path fill="#284268" d="M388 169q28-11 56-3a1 1 36 0 0 1 0c13-8 25-10 40-10 6 1 11 5 9 12l-4 4c-9 8-17 15-23 24l-6 15c-9 24-19 53-44 64-10 4-17 8-24 15v1q46-2 73 33c7 8 15 17 24 19 3 1 6 1 8 4 7 7 1 13-5 17-38 28-100 57-146 31a1 1-47 0 0-1 0q-19 12-42 8a1 1-75 0 0-1 1c-11 27-36 42-63 50-13 4-30 6-43 11q-11 5-15-5c-3-9-9-17-15-25l-12-12a59 59 0 0 1-7-51 1 1-62 0 0 0-1l-5-4a1 1-31 0 0-1 0c-20 5-44 2-64-5-19-5-38-7-52 9-4 4-11 6-14 0l-1-7c3-23 8-48 23-67 13-13 32-18 50-14a1 1-79 0 0 1-1q1-7 5-14a1 1-51 0 0 0-2q-17-20-25-44c-8-25-20-31-44-36-6-2-5-9 1-11q19-7 39-17c40-21 83 4 106 36l11 18q7 13 16 25h1c-19-57-8-124 16-178 4-9 11-7 18-3 20 15 38 31 52 53h1c12-13 28-18 42-28q13-11 22-25l5-8c4-5 13-3 17 2l3 7c17 35 24 73 16 111l1 1ZM363 64q-13 38-28 74c-13 33-28 65-34 101-2 7-2 13 0 21 13-13 20-30 31-44 11-15 26-30 42-41a2 2 82 0 0 1-1c11-36 4-76-12-110Zm-12 2q-17 24-43 37c-8 4-15 8-21 15a2 2 52 0 0 0 2q21 48-7 91a1 1 45 0 0 0 1l11 19h1q5-24 13-47l23-54q13-32 23-64 1-1 0 0ZM226 250q-13-42-8-87 2-23 1-54l-1-40q0-2-1 0c-18 44-26 94-19 141q9 49 45 84v-1q-11-21-17-43Zm48-48c31-53-3-103-46-134v1q3 48 0 97l-1 20c0 34 8 67 23 98q0 1 0 0 0-38 17-70l7-12Zm-108 10c-18-34-60-65-99-46l-10 5v1c22 9 40 25 53 44 9 14 15 29 23 41 11 19 33 40 56 43l51 6v-1q-15-13-26-30l-4-4c-17-18-31-37-44-59Zm315-46c-20 0-39 7-42 29l-5 49v2c9-14 14-30 20-45 5-14 15-25 27-34v-1ZM301 287c35 1 56-12 76-38q24-30 52-57a2 2 76 0 0 1-1l6-16v-1c-43-8-74 18-97 50l-17 27q-8 11-19 22a2 2 78 0 0-1 1l-2 11a1 1-84 0 0 1 2Zm-155 2q-18-17-28-36c-15-33-37-65-73-75l-6 1v1q26 10 34 35c13 39 40 69 79 80q2 0 1-1l-7-5Zm138 20q20 11 43 9a1 1-85 0 0 0-1l2-6c4-22 26-18 40-10 12-15 28-30 47-37l2-2q4-8 6-18l3-35v-1q-23 23-43 49c-23 28-51 44-88 39a1 1-69 0 0-1 1l-11 11a1 1 41 0 0 0 1Zm-10-86q-18 39-12 83h1c33-8 34-37 22-63h-1c-7 4-12-7-4-9v-1l-5-10h-1Zm-171 86c11 10 25 18 33 33 12 19 29 35 53 22v-1c-29-7-44-33-48-61a1 1 6 0 0-1 0q-23-9-42-27c-6 12-5 25 5 34Zm-34-17c-34 1-44 41-47 68q7-6 16-9 17-5 34-1c21 6 41 11 63 8l-7-10c-6-11-15-18-25-26-11-9-17-15-19-28a1 1-87 0 0 0-1q-8-2-15-1Zm311 22c5 8 16 12 24 14s14 4 15 12c2 8-6 21-11 27-7 8-16 9-26 10q-14 2-26 11c41 21 100-8 134-34l-1-1c-16-4-24-16-35-28-18-21-44-27-71-23a2 2 13 0 0-2 0l-4 6a1 1 45 0 0 0 1l3 5Zm-82 76c14 7 33 6 45-5q16-14 36-18c9-1 16 0 22-8q5-5 8-14c1-4 0-6-4-6-13-4-25-8-33-20q-7-10-18-13c-7-3-13-2-15 6-5 25-14 67-41 77v1Zm-146-84c5 25 21 48 50 49q3 0 5-2c7-12 12-22 26-28q8-3 14-8v-1l-74-7-21-4v1Zm130 71c7 7 16 2 22-4 11-11 17-29 21-44a1 1 4 0 0-1-1q-27 1-50-14l-4 1a1 1 75 0 0-1 1c0 16 0 42 9 56l4 5Zm12 22q-13-7-22-18c-11-14-13-35-13-52h-1q-10 16-18 34c-5 11-8 21-10 33q-6 29-22 55h1l26-6c25-6 48-21 59-45a1 1-64 0 0 0-1Zm-102-25q-10 4-21 5l-13-3-1 1c-3 14-2 31 9 43 10 11 19 21 25 36h1l8-12c10-15 16-32 20-49s6-27 12-40l13-24c-8 3-16 6-21 13-5 8-9 18-18 21-5 1-10 6-14 9Z"/>
    <path fill="#f5dac5" d="M363 64c16 34 23 74 12 110a2 2 82 0 1-1 1c-16 11-31 26-42 41-11 14-18 31-31 44-2-8-2-14 0-21 6-36 21-68 34-101q15-36 28-74Z"/>
    <path fill="#f9f9f9" d="M351 66q1-1 0 0-10 32-23 64l-23 54q-8 23-13 47h-1l-11-19a1 1 45 0 1 0-1q28-43 7-91a2 2 52 0 1 0-2c6-7 13-11 21-15q26-13 43-37Z"/>
    <path fill="#dbd7d5" d="M219 109q-6 21-8 42c-3 34 1 67 14 98l1 1q6 22 17 43v1q-36-35-45-84c-7-47 1-97 19-141q1-2 1 0l1 40Z"/>
    <path fill="#f5dac5" d="M228 68c43 31 77 81 46 134l-7 12q-17 32-17 70 0 1 0 0c-15-31-23-64-23-98l1-20q3-49 0-97v-1Z"/>
    <path fill="#f9f9f9" d="M219 109q1 31-1 54-5 45 8 87l-1-1c-13-31-17-64-14-98q2-21 8-42Z"/>
    <path fill="#f5dac5" d="M67 166c39-19 81 12 99 46 13 22 27 41 44 59l4 4q11 17 26 30v1l-51-6c-23-3-45-24-56-43-8-12-14-27-23-41-13-19-31-35-53-44v-1l10-5Z"/>
    <path fill="#e0c4b1" d="M439 195c3-22 22-29 42-29v1c-12 9-22 20-27 34-6 15-11 31-20 45v-2l5-49Z"/>
    <path fill="#f9f9f9" d="M301 287a1 1-84 0 1-1-2l2-11a2 2 78 0 1 1-1q11-11 19-22l17-27c23-32 54-58 97-50v1l-6 16a2 2 76 0 1-1 1q-28 27-52 57c-20 26-41 39-76 38Z"/>
    <path fill="#dbd7d5" d="m45 178-2 1q-1 1 1 2l4 1q32 6 42 37c8 26 25 50 48 66l6 4h2l7 5q1 1-1 1c-39-11-66-41-79-80q-8-25-34-35v-1l6-1Z"/>
    <path fill="#f9f9f9" d="M45 178c36 10 58 42 73 75q10 19 28 36h-2l-6-4c-23-16-40-40-48-66q-10-31-42-37l-4-1q-2-1-1-2l2-1Z"/>
    <path fill="#f5dac5" d="M284 309a1 1 41 0 1 0-1l11-11a1 1-69 0 1 1-1c37 5 65-11 88-39q20-26 43-49v1l-3 35q-2 10-6 18l-2 2c-19 7-35 22-47 37-14-8-36-12-40 10l-2 6a1 1-85 0 1 0 1q-23 2-43-9Z"/>
    <path fill="#f9df4a" d="M274 223h1l5 10v1c-8 2-3 13 4 9h1c12 26 11 55-22 63h-1q-6-44 12-83Zm3 37a5 5 0 0 0-5-5 5 5 0 0 0-5 5 5 5 0 0 0 5 5 5 5 0 0 0 5-5Zm10 15a5 5 0 0 0-5-5 5 5 0 0 0-5 5 5 5 0 0 0 5 5 5 5 0 0 0 5-5Zm-12 19a5 5 0 0 0-6-5 5 5 0 0 0-5 5 5 5 0 0 0 5 5 5 5 0 0 0 6-5Z"/>
    <circle cx="272" cy="259.7" r="5.2" fill="#284268"/>
    <circle cx="282.1" cy="275.3" r="5.1" fill="#284268"/>
    <path fill="#f4d2ba" d="M103 309c-10-9-11-22-5-34q19 18 42 27a1 1 6 0 1 1 0c4 28 19 54 48 61v1c-24 13-41-3-53-22-8-15-22-23-33-33Z"/>
    <circle cx="269.5" cy="293.9" r="5.2" fill="#284268"/>
    <path fill="#f5dac5" d="M38 351c3-22 11-46 31-59q7-1 15 1a1 1-87 0 1 0 1c2 13 8 19 19 28 10 8 19 15 25 26l7 10c-22 3-42-2-63-8q-17-4-34 1Z"/>
    <path fill="#ccb29f" d="M69 292c-20 13-28 37-31 59q-9 3-16 9c3-27 13-67 47-68Z"/>
    <path fill="#f5dac5" d="M404 328c-8-2-19-6-24-14l-3-5a1 1 45 0 1 0-1l4-6a2 2 13 0 1 2 0c27-4 53 2 71 23 11 12 19 24 35 28l1 1c-34 26-93 55-134 34q12-9 26-11c10-1 19-2 26-10 5-6 13-19 11-27-1-8-7-10-15-12Z"/>
    <path fill="#e0c4b1" d="M298 390v-1c27-10 36-52 41-77 2-8 8-9 15-6q11 3 18 13c8 12 20 16 33 20 4 0 5 2 4 6q-3 9-8 14c-6 8-13 7-22 8q-20 4-36 18a42 42 0 0 1-45 5Z"/>
    <path fill="#e0c0aa" d="M202 355c-29-1-45-24-50-49v-1l21 4 74 7v1q-6 5-14 8c-14 6-19 16-26 28q-2 2-5 2Z"/>
    <path fill="#f9f9f9" d="m282 377-4-5c-9-14-9-40-9-56a1 1 75 0 1 1-1l4-1q23 15 50 14a1 1 4 0 1 1 1c-4 15-10 33-21 44-6 6-15 11-22 4Z"/>
    <path fill="#f5dac5" d="M294 399a1 1-64 0 1 0 1 82 82 0 0 1-59 45l-26 6h-1q16-26 22-55c2-12 5-22 10-33q8-18 18-34h1c0 17 2 38 13 52q9 11 22 18Z"/>
    <path fill="#dbd7d5" d="M232 355q-4 4-10 5a2 2 15 0 0-1 1q-12 11-29 13c4-3 9-8 14-9 9-3 13-13 18-21 5-7 13-10 21-13l-13 24Z"/>
    <path fill="#f9f9f9" d="M232 355c-6 13-8 23-12 40s-10 34-20 49l-14-17a47 47 0 0 1-15-41v-7q11-1 21-5 17-2 29-13a2 2 15 0 1 1-1q6-1 10-5Z"/>
    <path fill="#dbd7d5" d="M171 379v7c-2 16 3 30 15 41l14 17-8 12h-1c-6-15-15-25-25-36-11-12-12-29-9-43l1-1 13 3Z"/>
</svg>